<svg id="Layer_1" data-name="Layer 1" xmlns="http://www.w3.org/2000/svg" xmlns:xlink="http://www.w3.org/1999/xlink" viewBox="0 0 600 26.65"><defs><style>.cls-1{fill:url(#linear-gradient);}</style><linearGradient id="linear-gradient" y1="13.14" x2="600" y2="13.14" gradientUnits="userSpaceOnUse"><stop offset="0" stop-color="#474444"/><stop offset="1"/></linearGradient></defs><title>Matthew-Baltzell</title><path class="cls-1" d="M0,0H1.2L12.31,16,23.38,0h1.2V26.27H23.31V2.21L12.31,18h-.08L1.24,2.21V26.27H0ZM57.46-.19h1.2L71.12,26.27H69.73l-3.56-7.66H49.92l-3.61,7.66H45ZM65.6,17.45,58,1.31,50.48,17.45ZM95,1.16H85.68V0h20V1.16H96.3V26.27H95Zm37.83,0h-9.35V0h20V1.16h-9.39V26.27h-1.27Zm31-1.16h1.28V12.46h18V0h1.28V26.27h-1.28V13.62h-18V26.27h-1.28Zm43.35,0h18.5V1.16H208.44v11.3H224v1.16H208.44V25.11h17.42v1.16H207.17ZM245,0h1.39l8.26,24.43,7.88-24.5h1l7.92,24.54L279.64,0H281l-9.08,26.46h-1.05L262.94,2.33l-7.85,24.13H254ZM300,0h13.47c3.3,0,5.63.83,7.17,2.33a5.91,5.91,0,0,1,1.69,4.28v.07a6.1,6.1,0,0,1-4.06,5.86c3.19,1.05,5.22,2.85,5.22,6.41V19c0,4.5-3.68,7.24-9.94,7.24H300Zm15.16,8.11c0-1.47-1.16-2.25-3.3-2.25h-4.77v4.61h4.58c2.21,0,3.49-.75,3.49-2.29Zm-2.51,7.47h-5.56v4.84h5.63c2.25,0,3.49-.87,3.49-2.41v-.07C316.23,16.51,315.11,15.58,312.67,15.58ZM351-.19h7l11.18,26.46h-7.81l-1.87-4.73H349.3l-1.88,4.73H339.8Zm6.38,16.07L354.4,8.44l-3,7.44ZM386.71,0H394V19.89h12.72v6.38h-20Zm40.84,6.38H419.7V0h23V6.38h-7.88V26.27h-7.28ZM459.75,21,472.92,6.12H460.2V0h22.74V5.25L469.77,20.12h13.17v6.15H459.75Zm42-21h21.13V6.16H509v4h12.61v5.74H509v4.17h14.11v6.19H501.75Zm40.08,0h7.28V19.89h12.72v6.38h-20ZM580,0h7.28V19.89H600v6.38H580Z" transform="translate(0 0.19)"/></svg>