<svg id="Layer_1" data-name="Layer 1" xmlns="http://www.w3.org/2000/svg" xmlns:xlink="http://www.w3.org/1999/xlink" viewBox="0 0 432 432"><defs><style>.cls-1{fill:url(#linear-gradient);}</style><linearGradient id="linear-gradient" x1="216" y1="294.7" x2="216" y2="137.3" gradientUnits="userSpaceOnUse"><stop offset="0"/><stop offset="1" stop-color="#474444"/></linearGradient></defs><title>MB-Matthew-Baltzell-Logo</title><path class="cls-1" d="M56.05,280.59h.64l5.92,8.53,5.9-8.53h.64v14h-.68V281.77l-5.86,8.41h0l-5.86-8.41V294.6h-.66Zm30.63-.1h.64L94,294.6h-.74l-1.9-4.08H82.66l-1.92,4.08H80ZM91,289.9l-4-8.61-4,8.61Zm15.69-8.69h-5v-.62H112.4v.62h-5V294.6h-.68Zm20.17,0h-5v-.62h10.67v.62h-5V294.6h-.68Zm16.51-.62h.68v6.65h9.59v-6.65h.68v14h-.68v-6.74h-9.59v6.74h-.68Zm23.11,0h9.87v.62h-9.19v6h8.31v.62h-8.31V294h9.29v.62h-10Zm20.15,0h.74l4.41,13,4.2-13.07h.52l4.22,13.09,4.4-13.05h.7L201,294.7h-.56l-4.2-12.87-4.18,12.87h-.56Zm29.36,0h7.18a5.29,5.29,0,0,1,3.83,1.24,3.16,3.16,0,0,1,.9,2.29v0a3.24,3.24,0,0,1-2.17,3.12c1.71.56,2.79,1.52,2.79,3.42v0c0,2.4-2,3.86-5.31,3.86H216Zm8.08,4.33c0-.78-.62-1.2-1.76-1.2h-2.54v2.46h2.44c1.18,0,1.86-.4,1.86-1.22Zm-1.34,4h-3v2.58h3c1.2,0,1.86-.46,1.86-1.28v0C224.65,289.4,224.05,288.9,222.75,288.9Zm20.41-8.41h3.75l6,14.11h-4.16l-1-2.52h-5.43l-1,2.52h-4.06Zm3.41,8.57-1.56-4-1.59,4Zm15.66-8.47h3.89V291.2h6.78v3.4H262.23ZM284,284h-4.19v-3.41h12.27V284h-4.2v10.6H284Zm17.17,7.78,7-7.92h-6.78v-3.27h12.12v2.81l-7,7.92h7v3.28H301.18Zm22.39-11.19h11.26v3.29h-7.42V286h6.72v3.06h-6.72v2.22h7.52v3.3H323.57Zm21.37,0h3.88V291.2h6.78v3.4H344.94Zm20.35,0h3.88V291.2H376v3.4H365.29ZM130.73,137.3V245.16H98.57V137.3Zm53.32,0V245.16H216.2V137.3Zm-26.46,32.36-22.84-27.52v50.55l22.64,27.64L180,192.69V142.22ZM330,166.06c0-18.72-18.66-28.76-28.84-28.76H224.75v32.42h105A30.19,30.19,0,0,0,330,166.06Zm-16.63,24s11.92-3.79,15.58-16.33H224.75V209H332C327.49,194.86,313.34,190.07,313.34,190.07ZM333,213H224.75v32.16H304.8c10.72,0,28.63-5.7,28.63-27A30.18,30.18,0,0,0,333,213Z"/></svg>