<?xml version="1.0" encoding="utf-8"?>
<!-- Generator: Adobe Illustrator 22.1.0, SVG Export Plug-In . SVG Version: 6.00 Build 0)  -->
<svg version="1.1" id="Layer_1" xmlns="http://www.w3.org/2000/svg" xmlns:xlink="http://www.w3.org/1999/xlink" x="0px" y="0px"
	 viewBox="0 0 432 287.3" style="enable-background:new 0 0 432 287.3;" xml:space="preserve">
<style type="text/css">
	.st0{fill:#FFFFFF;}
</style>
<title>sig_Artboard 1</title>
<g>
	
		<image style="overflow:visible;opacity:0.6;" width="437" height="299" xlink:href="DFEF9D44.png"  transform="matrix(1 0 0 1 0.596 -2.9967)">
	</image>
	<g>
		<path class="st0" d="M416.5,154c-3.1-2.4-6.8-4.5-10.5-5.6c-8.3-2.5-16.7-5.1-25.2-6.4c-26.3-3.8-52.8-2.4-79.2-0.4
			c-3.2,0.2-6.5,0-9.7,0c3-1.5,5.8-3.5,9-4.6c22.1-7.2,44.2-14.1,66.2-21.2c4.8-1.6,9.5-3.5,14.2-5.6c3.8-1.6,7.3-3.8,7.2-8.6
			c-0.1-5.3-4.2-7.5-8.4-8.8c-4.5-1.4-9.1-2.5-13.7-3.3c-18.7-3.4-37.6-2.7-56.4-1.1c-32,2.7-62.6,11.5-93.1,21.1
			c-2.4,0.8-4.8,1.8-7.2,2.4c-2.4,0.6-3.6-0.3-2.6-2.8c0.9-2.4,2-4.7,3.1-7c12-23.7,23.2-47.9,39.9-68.9c3.8-4.8,7-10.2,10.1-15.6
			c1.9-3.3,5.6-7.4,1.3-10.7c-4.9-3.7-7.8,1.4-10.5,4.6c-3.3,3.9-6.3,8-9.1,12.3c-4.5,7-8.7,14.3-13.2,21.4
			c-2.1,3.4-4.3,6.8-7.1,9.6c-14.4,15.1-29.9,28.7-47,40.6c-1.8,1.3-3.5,2.6-5.5,3.5c-2.4,1.1-5.1,1.7-7.6,2.6
			c0.7-2.3,1.2-4.8,2.3-6.9c2.2-4.2,4.5-8.3,7-12.4c7.3-11.7,14.8-23.4,22.1-35.1c1.5-2.5,3.1-4.9,4.6-7.5c1.5-2.7,2.5-5.6-0.2-8
			c-2.9-2.6-5.5-0.7-7.7,1.2c-3.2,2.9-6.4,6-9.2,9.3c-35.5,40.1-70.9,80.2-106.2,120.3c-0.8,0.9-0.7,2.5-1.1,3.7
			c1.3,0.1,3,0.7,3.9,0.2c2.1-1.3,3.9-3.2,5.6-5c20.9-22.3,41.7-44.7,62.6-67.1c2-2.1,3.9-4.4,6-6.4c0.8-0.8,2.2-1,3.3-1.5
			c-0.2,1-0.2,2.1-0.6,3c-1.9,4.7-4.5,9.2-5.7,14.1c-2,8.4,3.6,13.8,11.8,11.4c4.4-1.3,8.8-3.5,12.6-6.2
			c10.3-7.4,20.2-15.4,30.3-23.1c0.8-0.6,1.9-1,2.8-1.5c0,1.3,0.3,2.7-0.2,3.7c-7,15.6-14.6,31-21.1,46.9
			c-7.3,17.7-11.7,36.1-10.7,55.5c0.4,9.2,0.4,9.3-8.4,11.6c-38.9,10.5-76.9,23.7-114.3,38.5c-9.7,3.9-19.3,8.4-28.5,13.4
			c-4.3,2.3-8.4,5.9-11.4,9.9c-5.5,7.5-2,15.4,7.1,17c4.3,0.7,7.4,0.9,13.8,0.9c4.2,0,20.1-2.5,30.5-4.1
			c96.8-15.5,191-41.9,285.4-67.9c18.5-5.1,36.7-11.4,53.5-21c5.9-3.4,11.9-7.3,16.7-12C425.8,169.1,424.9,160.5,416.5,154z
			 M181.9,191.4c3.6-22.4,8.3-44.5,17.6-65.3c1.9-4.2,4.2-7.2,9-8.5c0.6-0.2,1.3-0.3,1.9-0.5c28.2-7.8,65.1-15.1,93.6-17.7
			c8-0.6,16.1-0.9,24.6-0.9c9.4,0.9,24.5,2.2,39.6,3.7c0.3,0.1,0.7,0.2,0.9,0.2c1.1,0.4,2.2,1.2,3.3,1.8c-1.1,0.8-2.2,2-3.4,2.4
			c-12,4.2-23.9,8.6-36,12.3c-24.2,7.4-48.6,14.4-72.9,21.5c-1.7,0.5-3.5,1.2-5.2,1.5c-4.4,0.9-5.4-0.1-4-4.2
			c1.2-3.4,2.9-6.7,4.2-10.1c0.3-0.8-0.1-2.4-0.7-2.7c-0.7-0.4-2.5-0.2-2.9,0.3c-2.3,3.6-5.2,7.2-6.4,11.3
			c-2.2,7.3-6.7,10.7-13.9,11.6c-2.5,0.3-5,0.9-7.4,1.7c-3.4,1.2-5.9,3.8-5,7.4c0.6,2.5,2.8,4.8,4.9,6.5c1.2,1,3.7,0.4,5.1,1.3
			c1.1,0.7,2.2,3,1.8,3.9c-2.4,5.7-4.9,11.4-8,16.7c-1.1,1.9-3.7,3.6-5.9,4.2c-9.8,2.5-19.7,4.8-29.6,6.8
			C182.1,197.5,181,196.5,181.9,191.4z M408.4,170c-0.1,0.1-0.2,0.2-0.3,0.3c-0.2,0.2-0.4,0.4-0.7,0.5c-4.6,3.5-9.5,6.8-14.6,9.4
			c-19.7,9.9-37.6,14.3-57.3,19.3c-96.6,24.5-193.6,48.6-291.7,66.3c-5.6,1-17.1,3.7-17.1,1c0-3.7,9.2-7.7,14.4-10.1
			c55.2-24.4,112.2-43.5,171-57c32.7-7.5,65.5-15,98.2-22.5c1.1-0.2,2.2-0.3,3.1-0.9c0.8-0.5,1.3-1.5,1.9-2.3
			c-0.8-0.5-1.6-1.5-2.3-1.5c-3.6,0.2-7.2,0.5-10.8,1.1c-21,3.7-42.1,7.5-63.1,11.3c-5.9,1.1-6.6,0.3-4.8-5.2
			c5-15,5.1-15.5,20.8-17.2c29.5-3.2,68-7.3,88.6-7.8c20.7-0.6,33.9-0.2,50.3,4.3c0.5,0.2,1.1,0.3,1.6,0.4c3.5,1,7,2,10.3,3.5
			C409.5,164.6,410.5,167.7,408.4,170z"/>
	</g>
</g>
</svg>
