<?xml version="1.0" encoding="utf-8"?>
<!-- Generator: Adobe Illustrator 26.0.1, SVG Export Plug-In . SVG Version: 6.00 Build 0)  -->
<svg version="1.1" id="Layer_1" xmlns="http://www.w3.org/2000/svg" xmlns:xlink="http://www.w3.org/1999/xlink" x="0px" y="0px"
	 viewBox="0 0 600 26.6" style="enable-background:new 0 0 600 26.6;" xml:space="preserve">
<style type="text/css">
	.st0{fill:#FFFFFF;}
</style>
<path class="st0" d="M0,0.2h1.2l11.1,16l11.1-16h1.2v26.3h-1.3V2.4l-11,15.8h-0.1L1.2,2.4v24.1H0V0.2z M57.5,0h1.2l12.5,26.5h-1.4
	l-3.6-7.7H49.9l-3.6,7.7H45L57.5,0z M65.6,17.6L58,1.5l-7.5,16.1H65.6z M95,1.3h-9.3V0.2h20v1.2h-9.4v25.1H95V1.3z M132.8,1.3h-9.3
	V0.2h20v1.2h-9.4v25.1h-1.3L132.8,1.3z M163.8,0.2h1.3v12.5h18V0.2h1.3v26.3h-1.3V13.8h-18v12.7h-1.3V0.2z M207.2,0.2h18.5v1.2
	h-17.2v11.3H224v1.2h-15.6v11.5h17.4v1.2h-18.7L207.2,0.2z M245,0.2h1.4l8.3,24.4l7.9-24.5h1l7.9,24.5l8.2-24.5h1.4l-9.1,26.5h-1
	l-7.9-24.1l-7.9,24.1H254L245,0.2z M300,0.2h13.5c3.3,0,5.6,0.8,7.2,2.3c1.1,1.1,1.7,2.7,1.7,4.3v0.1c0,2.6-1.6,5-4.1,5.9
	c3.2,1.1,5.2,2.9,5.2,6.4v0c0,4.5-3.7,7.2-9.9,7.2H300V0.2z M315.2,8.3c0-1.5-1.2-2.2-3.3-2.2h-4.8v4.6h4.6
	C313.9,10.7,315.2,9.9,315.2,8.3L315.2,8.3z M312.6,15.8h-5.6v4.8h5.6c2.2,0,3.5-0.9,3.5-2.4v-0.1C316.2,16.7,315.1,15.8,312.6,15.8
	L312.6,15.8z M351,0h7l11.2,26.5h-7.8l-1.9-4.7h-10.2l-1.9,4.7h-7.6L351,0z M357.4,16.1l-3-7.4l-3,7.4H357.4z M386.7,0.2h7.3v19.9
	h12.7v6.4h-20L386.7,0.2z M427.5,6.6h-7.8V0.2h23v6.4h-7.9v19.9h-7.3L427.5,6.6z M459.8,21.2l13.2-14.9h-12.7V0.2h22.7v5.2
	l-13.2,14.9h13.2v6.1h-23.2V21.2z M501.8,0.2h21.1v6.2H509v4h12.6v5.7H509v4.2h14.1v6.2h-21.4V0.2z M541.8,0.2h7.3v19.9h12.7v6.4
	h-20V0.2z M580,0.2h7.3v19.9H600v6.4h-20V0.2z"/>
</svg>
