<svg id="Layer_1" data-name="Layer 1" xmlns="http://www.w3.org/2000/svg" xmlns:xlink="http://www.w3.org/1999/xlink" viewBox="0 0 432 432"><defs><style>.cls-1{fill:url(#linear-gradient);}</style><linearGradient id="linear-gradient" x1="216.02" y1="354.62" x2="216.02" y2="57.26" gradientUnits="userSpaceOnUse"><stop offset="0"/><stop offset="1" stop-color="#474444"/></linearGradient></defs><title>MatthewBaltzell_Logo</title><path class="cls-1" d="M35.48,338.69h.73l6.68,9.62,6.66-9.62h.73V354.5h-.77V340l-6.62,9.48h0L36.23,340V354.5h-.75Zm35.31-.11h-.73l-7.5,15.92h.79l2.18-4.6H75.3l2.14,4.6h.84ZM65.86,349.2l4.54-9.72L75,349.2Zm26.81-9.81H87.05v-.7h12v.7H93.44V354.5h-.77Zm22.76,0h-5.62v-.7h12v.7H116.2V354.5h-.77Zm18.64-.7h.76v7.5h10.82v-7.5h.77V354.5h-.77v-7.61H134.83v7.61h-.76Zm26.08,0h11.14v.7H160.92v6.8h9.37v.7h-9.37v6.91H171.4v.7H160.15Zm22.75,0h.83l5,14.71,4.74-14.75H194l4.76,14.77,5-14.73h.79l-5.46,15.93h-.63l-4.75-14.53L189,354.62h-.63ZM227,346.24a3.66,3.66,0,0,0,2.44-3.52v-.05a3.57,3.57,0,0,0-1-2.58,5.94,5.94,0,0,0-4.31-1.4H216V354.5h8.15c3.77,0,6-1.65,6-4.36v0C230.16,348,228.94,346.87,227,346.24Zm-6.72-4h2.86c1.29,0,2,.48,2,1.36v0c0,.93-.77,1.38-2.1,1.38H220.3Zm5.48,7.32c0,.92-.74,1.44-2.1,1.44H220.3v-2.91h3.34c1.47,0,2.14.56,2.14,1.42Zm25.12-11h-4.23L240,354.5h4.58l1.13-2.84h6.12l1.13,2.84h4.7ZM247,348.25l1.78-4.47,1.76,4.47Zm21.23-9.56h4.38v12h7.66v3.84h-12Zm24.57,3.84h-4.72v-3.84H301.9v3.84h-4.75v12h-4.38Zm19.38,8.79,7.93-8.95h-7.66v-3.68h13.69v3.17l-7.93,8.94h7.93v3.7h-14Zm25.27-12.63h12.72v3.71h-8.38v2.41h7.59v3.46h-7.59v2.51h8.49v3.72H337.42Zm24.12,0h4.38v12h7.66v3.84h-12Zm23,0h4.38v12h7.66v3.84h-12Zm1-156.08a29.29,29.29,0,0,0-8.86-4.74c-7-2.13-14.1-4.33-21.32-5.38-22.26-3.22-44.61-2-66.94-.32-2.72.21-5.46,0-8.2,0,2.53-1.3,4.94-3,7.62-3.85,18.64-6.06,37.35-11.91,56-17.95,4.08-1.32,8-3,12-4.69,3.17-1.38,6.21-3.23,6.1-7.29-.12-4.48-3.53-6.3-7.12-7.44a96,96,0,0,0-11.59-2.82c-15.82-2.88-31.75-2.26-47.63-.92-27,2.28-52.94,9.75-78.69,17.84-2,.65-4,1.49-6.09,2s-3-.23-2.18-2.38,1.67-4,2.64-5.91c10.13-20.07,19.58-40.52,33.7-58.26a106.76,106.76,0,0,0,8.56-13.16c1.61-2.76,4.75-6.28,1.11-9-4.12-3.1-6.63,1.21-8.91,3.88A96.42,96.42,0,0,0,238,72.62c-3.85,5.94-7.36,12.1-11.16,18.08a51.78,51.78,0,0,1-6,8.16,260.32,260.32,0,0,1-39.69,34.3,30.34,30.34,0,0,1-4.65,3,64,64,0,0,1-6.43,2.18,40.77,40.77,0,0,1,2-5.83c1.81-3.56,3.79-7,5.91-10.45,6.18-9.93,12.48-19.8,18.72-29.71,1.31-2.08,2.64-4.16,3.85-6.3s2.08-4.7-.17-6.75c-2.41-2.2-4.64-.64-6.47,1a105,105,0,0,0-7.81,7.84q-45,50.8-89.8,101.71c-.66.73-.62,2.08-.9,3.14,1.13.08,2.56.63,3.33.13a26.06,26.06,0,0,0,4.71-4.21q26.47-28.32,52.88-56.68c1.68-1.8,3.27-3.69,5.06-5.38a9.56,9.56,0,0,1,2.74-1.25,12.74,12.74,0,0,1-.49,2.56c-1.61,4-3.83,7.8-4.85,11.94-1.72,7.05,3,11.62,10,9.6a35.61,35.61,0,0,0,10.66-5.27c8.69-6.3,17.08-13,25.62-19.53a17.23,17.23,0,0,1,2.4-1.3c0,1.06.26,2.27-.14,3.15C201.37,140,195,153,189.47,166.41c-6.16,14.94-9.86,30.51-9.07,46.89.37,7.75.34,7.83-7.12,9.83-32.89,8.84-65,20-96.64,32.57A224.93,224.93,0,0,0,52.55,267a30.32,30.32,0,0,0-9.63,8.36c-4.68,6.33-1.71,13,6,14.34,3.59.61,7.31.48,11.66.73,8.18-1.1,17-2.09,25.76-3.5,81.83-13.07,161.5-35.38,241.22-57.41,15.64-4.32,31.06-9.64,45.25-17.79A70,70,0,0,0,387,201.6C393.4,195.35,392.62,188.07,385.48,182.61ZM187.15,214.18c3-18.91,7-37.58,14.86-55.2,1.58-3.56,3.5-6,7.57-7.2l1.62-.45c23.82-6.61,55-12.78,79.12-15h0c6.73-.49,13.63-.77,20.76-.8,7.9.73,20.69,1.85,33.47,3.11l.8.2a30.27,30.27,0,0,1,2.77,1.52,13,13,0,0,1-2.92,2C335.1,146,325,149.68,314.8,152.8,294.31,159.06,273.72,165,253.16,171c-1.47.43-2.91,1-4.4,1.27-3.76.74-4.61-.09-3.38-3.57,1-2.9,2.5-5.63,3.56-8.51a2.44,2.44,0,0,0-.61-2.3,2.5,2.5,0,0,0-2.43.27c-2,3.07-4.39,6.09-5.41,9.51-1.85,6.18-5.7,9.08-11.78,9.78a28.34,28.34,0,0,0-6.24,1.47c-2.86,1-5,3.19-4.22,6.25.52,2.07,2.4,4,4.12,5.49,1,.86,3.11.36,4.33,1.12.88.57,1.85,2.5,1.52,3.29a124.14,124.14,0,0,1-6.78,14.15,8.83,8.83,0,0,1-5,3.51c-8.3,2.14-16.66,4-25,5.79C187.33,219.4,186.45,218.53,187.15,214.18Zm191.23-17.84a4.25,4.25,0,0,1-.57.46,78.34,78.34,0,0,1-12.38,7.92c-16.67,8.39-31.78,12.12-48.4,16.34-81.67,20.72-163.63,41.08-246.56,56.05-4.71.85-9.61.61-14.42.87,2.19-5.52,7.74-6.54,12.18-8.51a802.79,802.79,0,0,1,144.56-48.21c27.66-6.37,55.35-12.63,83-19a8.59,8.59,0,0,0,2.63-.72,7.44,7.44,0,0,0,1.58-2c-.65-.44-1.34-1.29-2-1.25a79.36,79.36,0,0,0-9.12.93c-17.79,3.12-35.57,6.34-53.36,9.52-5,.9-5.58.27-4-4.36,4.23-12.71,4.29-13.1,17.62-14.56,25-2.71,57.45-6.13,74.93-6.61s28.63-.14,42.54,3.61l1.35.38a63.08,63.08,0,0,1,8.7,2.93c2.89,1.43,3.77,4,1.94,6A1.79,1.79,0,0,1,378.38,196.34Z"/></svg>